<svg version="1.1" xmlns="http://www.w3.org/2000/svg" xmlns:xlink="http://www.w3.org/1999/xlink" width="1072" height="839" viewBox="0 0 1072 839"><defs/><g transform="matrix(1,0,0,1,0,0)"><g><g><g><path fill="none" stroke="#d3d3d3" paint-order="fill stroke markers" d=" M 0 0 L 1200 0" stroke-miterlimit="10" stroke-opacity="0.8" stroke-dasharray="5"/></g><g><path fill="none" stroke="#d3d3d3" paint-order="fill stroke markers" d=" M 0 0 L 0 800" stroke-miterlimit="10" stroke-opacity="0.8" stroke-dasharray="5"/></g></g><g id="_E21EAC43-8947-4852-9935-5415CBF66B9E" bpmn2nodeid="_E21EAC43-8947-4852-9935-5415CBF66B9E" transform="matrix(1,0,0,1,132,41)"><g><path fill="none" stroke="none"/></g><g transform="matrix(1,0,0,1,0,0)"><path fill="#f2f2f2" stroke="none" id="_E21EAC43-8947-4852-9935-5415CBF66B9E?shapeType=BACKGROUND" paint-order="stroke fill markers" d=" M 0 0 L 877 0 L 877 248 L 0 248 L 0 0 Z Z"/></g><g transform="matrix(1,0,0,1,0,0)"><path fill="none" stroke="rgb(0,0,0)" id="_E21EAC43-8947-4852-9935-5415CBF66B9E?shapeType=BORDER&amp;renderType=STROKE" paint-order="fill stroke markers" d=" M 0 0 L 877 0 L 877 248 L 0 248 L 0 0 Z Z" stroke-miterlimit="10" stroke-width="0.5" stroke-dasharray=""/></g><g transform="matrix(-1.8369701987210297e-16,-1,1,-1.8369701987210297e-16,0,160.625)"><text fill="#000000" stroke="none" font-family="Open Sans" font-size="12pt" font-style="normal" font-weight="normal" text-decoration="normal" x="36.625" y="12" text-anchor="middle" dominant-baseline="alphabetic">Customer</text></g><g id="_7A15E53C-77DD-4273-9BAF-2A76CFCD2E24" bpmn2nodeid="_7A15E53C-77DD-4273-9BAF-2A76CFCD2E24" transform="matrix(1,0,0,1,87,95)"><g><path fill="none" stroke="none"/></g><g transform="matrix(0.125,0,0,0.125,0,0)"><g transform="matrix(1,0,0,1,0,0)"><path fill="#e8fae6" stroke="none" id="_7A15E53C-77DD-4273-9BAF-2A76CFCD2E24?shapeType=BACKGROUND" paint-order="stroke fill markers" d=" M 0 0 M 444 224 C 444 263.9 434.2 300.8 414.4 334.5 C 394.7 368.2 368 394.9 334.4 414.5 C 300.79999999999995 434.1 263.9 444 224 444 C 184.10000000000002 444 147.2 434.2 113.5 414.4 C 79.8 394.7 53.1 368 33.5 334.4 C 13.899999999999999 300.79999999999995 4 263.9 4 224 C 4 184.10000000000002 13.8 147.2 33.6 113.5 C 53.400000000000006 79.80000000000001 80.1 53.1 113.6 33.5 C 147.1 13.899999999999999 184.1 4 224 4 C 263.9 4 300.8 13.8 334.5 33.6 C 368.2 53.400000000000006 394.9 80.1 414.5 113.6 C 434.1 147.1 444 184.1 444 224 Z"/></g><g><g transform="matrix(1,0,0,1,0,0)"><g transform="matrix(1,0,0,1,0,0)"><path fill="rgb(74,162,65)" stroke="none" id="_7A15E53C-77DD-4273-9BAF-2A76CFCD2E24?shapeType=BORDER&amp;renderType=FILL" paint-order="stroke fill markers" d=" M 0 0 M 224 0 C 100.3 0 0 100.3 0 224 C 0 347.7 100.3 448 224 448 C 347.7 448 448 347.7 448 224 C 448 100.30000000000001 347.7 0 224 0 Z M 0 0 M 224 432 C 109.1 432 16 338.9 16 224 C 16 109.10000000000002 109.1 16 224 16 C 338.9 16 432 109.1 432 224 C 432 338.9 338.9 432 224 432 Z"/></g></g></g></g><g transform="matrix(1,0,0,1,-68.96484375,61)"><text fill="#000000" stroke="none" font-family="Open Sans" font-size="12pt" font-style="normal" font-weight="normal" text-decoration="normal" x="96.96484375" y="12" text-anchor="middle" dominant-baseline="alphabetic">Payment request received</text></g></g><g id="_36205910-C59D-4B1F-ADF4-C38AE0ED5D0E" bpmn2nodeid="_36205910-C59D-4B1F-ADF4-C38AE0ED5D0E" transform="matrix(1,0,0,1,224,72)"><g><path fill="none" stroke="none"/></g><g transform="matrix(1,0,0,1,0,0)"><path fill="#ffffff" stroke="none" id="_36205910-C59D-4B1F-ADF4-C38AE0ED5D0E?shapeType=BACKGROUND" paint-order="stroke fill markers" d=" M 2 0 L 152 0 L 152 0 A 2 2 0 0 1 154 2 L 154 100 L 154 100 A 2 2 0 0 1 152 102 L 2 102 L 2 102 A 2 2 0 0 1 0 100 L 0 2 L 0 2.0000000000000004 A 2 2 0 0 1 1.9999999999999996 0 Z"/></g><g transform="matrix(1,0,0,1,0,0)"><path fill="none" stroke="rgb(0,0,0)" id="_36205910-C59D-4B1F-ADF4-C38AE0ED5D0E?shapeType=BORDER&amp;renderType=STROKE" paint-order="fill stroke markers" d=" M 2 0 L 152 0 L 152 0 A 2 2 0 0 1 154 2 L 154 100 L 154 100 A 2 2 0 0 1 152 102 L 2 102 L 2 102 A 2 2 0 0 1 0 100 L 0 2 L 0 2.0000000000000004 A 2 2 0 0 1 1.9999999999999996 0 Z" stroke-miterlimit="10" stroke-width="1.5" stroke-dasharray=""/></g><g><g transform="matrix(0.06,0,0,0.06,9.4,9.4)"><g transform="matrix(1,0,0,1,0,0)"><path fill="#393f44" stroke="none" id="_36205910-C59D-4B1F-ADF4-C38AE0ED5D0E_task__6PTN__MCay" paint-order="stroke fill markers" d=" M 0 0 M 16 445.2101 C 16 440.86867 18.784312 431.12906000000004 22.001325 424.21728 C 35.767643 394.6402 77.282944 359.28049 129 333.08362 C 144.51625 325.22398 157.34689 319.96394 167.80739 317.17416 C 171.93153 316.07426 175.72913 314.41389999999996 176.5251 313.36265 C 178.89361 310.23449999999997 180.91404 302.90781 181.72673 294.5 L 182.5 286.5 L 178.50715 283.45457 C 166.30327 274.14645 154.2837 251.67767 148.03953 226.5 C 145.61086 216.70715 145.05603000000002 215.46246 142.98364 215.1579 C 141.70332000000002 214.96974 138.08302 212.24302 134.93852 209.09852 C 123.23314 197.39314000000002 116.89146000000001 177.37556 121.43982000000001 166.48978 C 123.00204000000001 162.75088 128.15457 159.00970999999998 131.75 159.00374 C 134.44781 158.99974 134.47062 158.60296 132.91375 138.78796 C 130.92658 113.4962 134.27903 92.26542699999999 143.13217 74.075676 C 152.23162 55.379835 167.56889 42.88208 189.04934 36.659507000000005 C 210.20334 30.531504000000005 237.79666 30.531504000000005 258.95065999999997 36.659507000000005 C 300.04166 48.562968000000005 318.95842 83.80634 314.95504999999997 141 C 314.31982999999997 150.075 313.62402 157.78816 313.4088 158.14035 C 313.19359 158.49254000000002 314.57532 159.07295000000002 316.47931 159.43014000000002 C 328.92867 161.76565000000002 330.98619 177.01772000000003 321.49638 196.62092 C 316.90319 206.10912000000002 309.35724 214.50797 304.81732 215.18517000000003 C 303.02259 215.45289000000002 302.2931 217.14618000000002 299.94277999999997 226.50000000000003 C 296.65948 239.56693 294.47402 245.30522000000002 287.94764 257.99534000000006 C 282.49071999999995 268.60596000000004 273.03466 281.10922000000005 268.10756999999995 284.2288300000001 L 264.87062 286.27832000000006 L 265.51815999999997 292.88916000000006 C 266.34490999999997 301.32961000000006 268.63948999999997 309.8706000000001 270.87735999999995 312.83742000000007 C 272.06735 314.4150200000001 275.00244999999995 315.78963000000005 280.0630699999999 317.13941000000005 C 291.06929999999994 320.0750300000001 303.61700999999994 325.27420000000006 320.99999999999994 334.10171 C 369.81470999999993 358.89104000000003 410.84810999999996 393.75797 425.03216 422.5 C 429.06985999999995 430.68183 432 440.23198 432 445.2101 L 432 448 L 224 448 L 16 448 L 16 445.2101 Z"/></g></g></g><g transform="matrix(1,0,0,1,4.039999999999992,13.680000000000007)"><g transform="matrix(0.04,0,0,0.04,63.36,69.12)"><g transform="matrix(1,0,0,1,0,0)"><path fill="none" stroke="none"/></g><g transform="matrix(1,0,0,1,0,0)"><path fill="none" stroke="none"/></g></g></g><g transform="matrix(1,0,0,1,35,36)"><text fill="#000000" stroke="none" font-family="Open Sans" font-size="12pt" font-style="normal" font-weight="normal" text-decoration="normal" x="52.59375" y="12" text-anchor="middle" dominant-baseline="alphabetic">      Inform       </text><text fill="#000000" stroke="none" font-family="Open Sans" font-size="12pt" font-style="normal" font-weight="normal" text-decoration="normal" x="52.59375" y="27" text-anchor="middle" dominant-baseline="alphabetic">Payment Data</text></g></g></g><g id="_1AC10951-BB1D-4A0B-BD8F-DFD9D215CAB2" bpmn2nodeid="_1AC10951-BB1D-4A0B-BD8F-DFD9D215CAB2" transform="matrix(1,0,0,1,132,300)"><g><path fill="none" stroke="none"/></g><g transform="matrix(1,0,0,1,0,0)"><path fill="#f2f2f2" stroke="none" id="_1AC10951-BB1D-4A0B-BD8F-DFD9D215CAB2?shapeType=BACKGROUND" paint-order="stroke fill markers" d=" M 0 0 L 877 0 L 877 237 L 0 237 L 0 0 Z Z"/></g><g transform="matrix(1,0,0,1,0,0)"><path fill="none" stroke="#000000" id="_1AC10951-BB1D-4A0B-BD8F-DFD9D215CAB2?shapeType=BORDER&amp;renderType=STROKE" paint-order="fill stroke markers" d=" M 0 0 L 877 0 L 877 237 L 0 237 L 0 0 Z Z" stroke-miterlimit="10" stroke-width="0.5" stroke-dasharray=""/></g><g transform="matrix(-1.8369701987210297e-16,-1,1,-1.8369701987210297e-16,0,159.30078125)"><text fill="#000000" stroke="none" font-family="Open Sans" font-size="12pt" font-style="normal" font-weight="normal" text-decoration="normal" x="40.80078125" y="12" text-anchor="middle" dominant-baseline="alphabetic">Back-office</text></g><g id="_59E08B6B-1023-4605-A103-5C2F94E682EF" bpmn2nodeid="_59E08B6B-1023-4605-A103-5C2F94E682EF" transform="matrix(1,0,0,1,488,81)"><g><path fill="none" stroke="none"/></g><g transform="matrix(1,0,0,1,0,0)"><path fill="#ffffff" stroke="none" id="_59E08B6B-1023-4605-A103-5C2F94E682EF?shapeType=BACKGROUND" paint-order="stroke fill markers" d=" M 2 0 L 152 0 L 152 0 A 2 2 0 0 1 154 2 L 154 100 L 154 100 A 2 2 0 0 1 152 102 L 2 102 L 2 102 A 2 2 0 0 1 0 100 L 0 2 L 0 2.0000000000000004 A 2 2 0 0 1 1.9999999999999996 0 Z"/></g><g transform="matrix(1,0,0,1,0,0)"><path fill="none" stroke="#000000" id="_59E08B6B-1023-4605-A103-5C2F94E682EF?shapeType=BORDER&amp;renderType=STROKE" paint-order="fill stroke markers" d=" M 2 0 L 152 0 L 152 0 A 2 2 0 0 1 154 2 L 154 100 L 154 100 A 2 2 0 0 1 152 102 L 2 102 L 2 102 A 2 2 0 0 1 0 100 L 0 2 L 0 2.0000000000000004 A 2 2 0 0 1 1.9999999999999996 0 Z" stroke-miterlimit="10" stroke-width="1.5" stroke-dasharray=""/></g><g><g transform="matrix(0.06,0,0,0.06,9.4,9.4)"><g transform="matrix(1,0,0,1,0,0)"><path fill="#393f44" stroke="none" id="_59E08B6B-1023-4605-A103-5C2F94E682EF_task__6PTN__MCay" paint-order="stroke fill markers" d=" M 0 0 M 16 445.2101 C 16 440.86867 18.784312 431.12906000000004 22.001325 424.21728 C 35.767643 394.6402 77.282944 359.28049 129 333.08362 C 144.51625 325.22398 157.34689 319.96394 167.80739 317.17416 C 171.93153 316.07426 175.72913 314.41389999999996 176.5251 313.36265 C 178.89361 310.23449999999997 180.91404 302.90781 181.72673 294.5 L 182.5 286.5 L 178.50715 283.45457 C 166.30327 274.14645 154.2837 251.67767 148.03953 226.5 C 145.61086 216.70715 145.05603000000002 215.46246 142.98364 215.1579 C 141.70332000000002 214.96974 138.08302 212.24302 134.93852 209.09852 C 123.23314 197.39314000000002 116.89146000000001 177.37556 121.43982000000001 166.48978 C 123.00204000000001 162.75088 128.15457 159.00970999999998 131.75 159.00374 C 134.44781 158.99974 134.47062 158.60296 132.91375 138.78796 C 130.92658 113.4962 134.27903 92.26542699999999 143.13217 74.075676 C 152.23162 55.379835 167.56889 42.88208 189.04934 36.659507000000005 C 210.20334 30.531504000000005 237.79666 30.531504000000005 258.95065999999997 36.659507000000005 C 300.04166 48.562968000000005 318.95842 83.80634 314.95504999999997 141 C 314.31982999999997 150.075 313.62402 157.78816 313.4088 158.14035 C 313.19359 158.49254000000002 314.57532 159.07295000000002 316.47931 159.43014000000002 C 328.92867 161.76565000000002 330.98619 177.01772000000003 321.49638 196.62092 C 316.90319 206.10912000000002 309.35724 214.50797 304.81732 215.18517000000003 C 303.02259 215.45289000000002 302.2931 217.14618000000002 299.94277999999997 226.50000000000003 C 296.65948 239.56693 294.47402 245.30522000000002 287.94764 257.99534000000006 C 282.49071999999995 268.60596000000004 273.03466 281.10922000000005 268.10756999999995 284.2288300000001 L 264.87062 286.27832000000006 L 265.51815999999997 292.88916000000006 C 266.34490999999997 301.32961000000006 268.63948999999997 309.8706000000001 270.87735999999995 312.83742000000007 C 272.06735 314.4150200000001 275.00244999999995 315.78963000000005 280.0630699999999 317.13941000000005 C 291.06929999999994 320.0750300000001 303.61700999999994 325.27420000000006 320.99999999999994 334.10171 C 369.81470999999993 358.89104000000003 410.84810999999996 393.75797 425.03216 422.5 C 429.06985999999995 430.68183 432 440.23198 432 445.2101 L 432 448 L 224 448 L 16 448 L 16 445.2101 Z"/></g></g></g><g transform="matrix(1,0,0,1,4.039999999999992,13.680000000000007)"><g transform="matrix(0.04,0,0,0.04,63.36,69.12)"><g transform="matrix(1,0,0,1,0,0)"><path fill="none" stroke="none"/></g><g transform="matrix(1,0,0,1,0,0)"><path fill="none" stroke="none"/></g></g></g><g transform="matrix(1,0,0,1,35,36)"><text fill="#000000" stroke="none" font-family="Open Sans" font-size="12pt" font-style="normal" font-weight="normal" text-decoration="normal" x="52.59375" y="12" text-anchor="middle" dominant-baseline="alphabetic">     Validate      </text><text fill="#000000" stroke="none" font-family="Open Sans" font-size="12pt" font-style="normal" font-weight="normal" text-decoration="normal" x="52.59375" y="27" text-anchor="middle" dominant-baseline="alphabetic">Payment Data</text></g></g><g id="_AB0ED3FB-90B9-4713-8D52-3D89448082D7" bpmn2nodeid="_AB0ED3FB-90B9-4713-8D52-3D89448082D7" transform="matrix(1,0,0,1,733,104)"><g><path fill="none" stroke="none"/></g><g transform="matrix(0.125,0,0,0.125,0,0)"><g transform="matrix(1,0,0,1,0,0)"><path fill="#fce7e7" stroke="none" id="_AB0ED3FB-90B9-4713-8D52-3D89448082D7?shapeType=BACKGROUND" paint-order="stroke fill markers" d=" M 0 0 M 444 224 C 444 263.9 434.2 300.8 414.4 334.5 C 394.7 368.2 368 394.9 334.4 414.5 C 300.79999999999995 434.1 263.9 444 224 444 C 184.10000000000002 444 147.2 434.2 113.5 414.4 C 79.8 394.7 53.1 368 33.5 334.4 C 13.899999999999999 300.79999999999995 4 263.9 4 224 C 4 184.10000000000002 13.8 147.2 33.6 113.5 C 53.400000000000006 79.80000000000001 80.1 53.1 113.6 33.5 C 147.1 13.899999999999999 184.1 4 224 4 C 263.9 4 300.8 13.8 334.5 33.6 C 368.2 53.400000000000006 394.9 80.1 414.5 113.6 C 434.1 147.1 444 184.1 444 224 Z"/></g><g><g transform="matrix(1,0,0,1,0,0)"><g transform="matrix(1,0,0,1,0,0)"><path fill="rgb(163,0,0)" stroke="none" id="_AB0ED3FB-90B9-4713-8D52-3D89448082D7?shapeType=BORDER&amp;renderType=FILL" paint-order="stroke fill markers" d=" M 0 0 M 224 0 C 100.3 0 0 100.3 0 224 C 0 347.7 100.3 448 224 448 C 347.7 448 448 347.7 448 224 C 448 100.30000000000001 347.7 0 224 0 Z M 0 0 M 224 400 C 126.8 400 48 321.2 48 224 C 48 126.80000000000001 126.8 48 224 48 C 321.2 48 400 126.8 400 224 C 400 321.2 321.2 400 224 400 Z"/></g></g></g></g><g transform="matrix(1,0,0,1,-46.75,61)"><text fill="#000000" stroke="none" font-family="Open Sans" font-size="12pt" font-style="normal" font-weight="normal" text-decoration="normal" x="74.75" y="12" text-anchor="middle" dominant-baseline="alphabetic">Payment completed</text></g></g></g><g id="_4E0469AB-A9AD-4A9C-9A42-FE2E1FF06D8C" bpmn2nodeid="_4E0469AB-A9AD-4A9C-9A42-FE2E1FF06D8C" transform="matrix(1,0,0,1,130.57142639160156,553.5714111328125)"><g><path fill="none" stroke="none"/></g><g transform="matrix(1,0,0,1,0,0)"><path fill="#fafafa" stroke="none" id="_4E0469AB-A9AD-4A9C-9A42-FE2E1FF06D8C?shapeType=BACKGROUND" paint-order="stroke fill markers" d=" M 2 0 L 876.7142944335938 0 L 876.7142944335938 0 A 2 2 0 0 1 878.7142944335938 2 L 878.7142944335938 233.857177734375 L 878.7142944335938 233.857177734375 A 2 2 0 0 1 876.7142944335938 235.857177734375 L 2 235.857177734375 L 2 235.857177734375 A 2 2 0 0 1 0 233.857177734375 L 0 2 L 0 2.0000000000000004 A 2 2 0 0 1 1.9999999999999996 0 Z"/></g><g transform="matrix(1,0,0,1,0,0)"><path fill="none" stroke="rgb(57,63,68)" id="_4E0469AB-A9AD-4A9C-9A42-FE2E1FF06D8C?shapeType=BORDER&amp;renderType=STROKE" paint-order="fill stroke markers" d=" M 2 0 L 876.7142944335938 0 L 876.7142944335938 0 A 2 2 0 0 1 878.7142944335938 2 L 878.7142944335938 233.857177734375 L 878.7142944335938 233.857177734375 A 2 2 0 0 1 876.7142944335938 235.857177734375 L 2 235.857177734375 L 2 235.857177734375 A 2 2 0 0 1 0 233.857177734375 L 0 2 L 0 2.0000000000000004 A 2 2 0 0 1 1.9999999999999996 0 Z" stroke-miterlimit="10" stroke-width="2" stroke-dasharray="2,2"/></g><g transform="matrix(1,0,0,1,143.1446472167969,10.082177734374994)"><g transform="matrix(0.05,0,0,0.05,285,209)"><g transform="matrix(1,0,0,1,0,0)"><path fill="none" stroke="black" id="_4E0469AB-A9AD-4A9C-9A42-FE2E1FF06D8C_subProcess__kgJF__M40B" paint-order="fill stroke markers" d=" M 0 0 M 421.5 159.5 C 405.6 156.4 390.1 165.8 385.1 180.8 L 385.1 180.8 L 385.20000000000005 180.5 C 385.20000000000005 180.6 380.90000000000003 192.3 370.30000000000007 203.4 C 357.30000000000007 217 341.1000000000001 223.6 320.70000000000005 223.6 C 296.6 223.6 271.80000000000007 200.6 245.60000000000005 176.2 C 213.30000000000007 146.2 176.80000000000007 112.1 128.20000000000005 112.1 C 98.70000000000005 112.1 57.00000000000004 124.89999999999999 25.30000000000004 185.7 C 8.7 217.6 2.3 249.2 2 250.6 L 2 250.7 C 1.9 251.1 1.8 251.6 1.8 252 C 1.8 252.1 1.8 252.2 1.8 252.3 C 1.7 252.70000000000002 1.7 253.20000000000002 1.6 253.60000000000002 C 1.6 253.70000000000002 1.6 253.8 1.6 253.90000000000003 C 1.6 254.30000000000004 1.5 254.80000000000004 1.5 255.20000000000005 C 1.5 255.30000000000004 1.5 255.40000000000003 1.5 255.50000000000006 C 1.5 255.90000000000006 1.5 256.30000000000007 1.5 256.6000000000001 C 1.5 256.80000000000007 1.5 256.9000000000001 1.5 257.1000000000001 C 1.5 257.4000000000001 1.5 257.7000000000001 1.5 258.00000000000006 C 1.5 258.20000000000005 1.5 258.50000000000006 1.5 258.70000000000005 C 1.5 258.90000000000003 1.5 259.20000000000005 1.6 259.40000000000003 C 1.6 259.70000000000005 1.6 260.00000000000006 1.7000000000000002 260.3 C 1.7000000000000002 260.40000000000003 1.7000000000000002 260.6 1.8000000000000003 260.7 C 1.8000000000000003 261.09999999999997 1.9000000000000004 261.5 2.0000000000000004 261.9 L 2.0000000000000004 262 C 4.1000000000000005 274.7 13.9 285.5 27.3 288.1 C 29.400000000000002 288.5 31.5 288.70000000000005 33.6 288.70000000000005 C 47.2 288.70000000000005 59.5 280.00000000000006 63.900000000000006 267.00000000000006 C 64.5 265.6000000000001 68.80000000000001 255.60000000000005 77.60000000000001 245.80000000000007 C 90.9 231.10000000000008 107.5 224.00000000000006 128.4 224.00000000000006 C 151.8 224.00000000000006 176.3 246.80000000000007 202.2 270.90000000000003 C 234.7 301.20000000000005 271.6 335.5 320.9 335.5 C 345.5 335.5 367.79999999999995 327 387.4 310.2 C 401.4 298.2 413.79999999999995 281.9 424.09999999999997 261.9 C 440.59999999999997 229.99999999999997 446.79999999999995 198.29999999999998 446.99999999999994 196.89999999999998 C 450.3 179.6 438.9 162.8 421.5 159.5 Z" stroke-miterlimit="10" stroke-dasharray=""/></g></g></g><g transform="matrix(1,0,0,1,356.8688659667969,0)"><text fill="#000000" stroke="none" font-family="Open Sans" font-size="12pt" font-style="normal" font-weight="normal" text-decoration="normal" x="82.48828125" y="12" text-anchor="middle" dominant-baseline="alphabetic">Cancel payment event</text></g><g id="_89551AD3-6AF5-4EC6-8998-ED84CF7E3455" bpmn2nodeid="_89551AD3-6AF5-4EC6-8998-ED84CF7E3455" transform="matrix(1,0,0,1,69.57142639160156,80.1290283203125)"><g><path fill="none" stroke="none"/></g><g transform="matrix(0.125,0,0,0.125,0,0)"><g transform="matrix(1,0,0,1,0,0)"><path fill="#e8fae6" stroke="none" id="_89551AD3-6AF5-4EC6-8998-ED84CF7E3455?shapeType=BACKGROUND" paint-order="stroke fill markers" d=" M 0 0 M 444 224 C 444 263.9 434.2 300.8 414.4 334.5 C 394.7 368.2 368 394.9 334.4 414.5 C 300.79999999999995 434.1 263.9 444 224 444 C 184.10000000000002 444 147.2 434.2 113.5 414.4 C 79.8 394.7 53.1 368 33.5 334.4 C 13.899999999999999 300.79999999999995 4 263.9 4 224 C 4 184.10000000000002 13.8 147.2 33.6 113.5 C 53.400000000000006 79.80000000000001 80.1 53.1 113.6 33.5 C 147.1 13.899999999999999 184.1 4 224 4 C 263.9 4 300.8 13.8 334.5 33.6 C 368.2 53.400000000000006 394.9 80.1 414.5 113.6 C 434.1 147.1 444 184.1 444 224 Z"/></g><g><g transform="matrix(1,0,0,1,0,0)"><g transform="matrix(1,0,0,1,0,0)"><path fill="#4aa241" stroke="none" id="_89551AD3-6AF5-4EC6-8998-ED84CF7E3455?shapeType=BORDER&amp;renderType=FILL" paint-order="stroke fill markers" d=" M 0 0 M 224 0 C 100.3 0 0 100.3 0 224 C 0 347.7 100.3 448 224 448 C 347.7 448 448 347.7 448 224 C 448 100.30000000000001 347.7 0 224 0 Z M 0 0 M 224 432 C 109.1 432 16 338.9 16 224 C 16 109.10000000000002 109.1 16 224 16 C 338.9 16 432 109.1 432 224 C 432 338.9 338.9 432 224 432 Z"/></g></g></g><g><g transform="matrix(1,0,0,1,0,0)"><g transform="matrix(1,0,0,1,0,0)"><path fill="#4aa241" stroke="none" id="_89551AD3-6AF5-4EC6-8998-ED84CF7E3455_wait" paint-order="stroke fill markers" d=" M 0 0 M 240.2 176.7 L 240.2 232.7 C 240.2 233.89999999999998 239.79999999999998 234.79999999999998 239.1 235.6 C 238.4 236.4 237.4 236.7 236.2 236.7 L 196.2 236.7 C 195 236.7 194.1 236.29999999999998 193.29999999999998 235.6 C 192.49999999999997 234.9 192.2 233.9 192.2 232.7 L 192.2 224.7 C 192.2 223.5 192.6 222.6 193.29999999999998 221.79999999999998 C 193.99999999999997 220.99999999999997 194.99999999999997 220.7 196.2 220.7 L 224.2 220.7 L 224.2 176.7 C 224.2 175.5 224.6 174.6 225.29999999999998 173.79999999999998 C 225.99999999999997 172.99999999999997 226.99999999999997 172.7 228.2 172.7 L 236.2 172.7 C 237.29999999999998 172.7 238.29999999999998 173.1 239.1 173.79999999999998 C 239.9 174.5 240.2 175.5 240.2 176.7 Z M 0 0 M 300.2 220.7 C 300.2 206.89999999999998 296.8 194.2 290.09999999999997 182.6 C 283.29999999999995 171 274.09999999999997 161.7 262.49999999999994 154.9 C 250.79999999999995 148.1 238.09999999999994 144.70000000000002 224.29999999999995 144.70000000000002 C 210.49999999999997 144.70000000000002 197.79999999999995 148.10000000000002 186.19999999999996 154.9 C 174.59999999999997 161.70000000000002 165.39999999999995 170.9 158.59999999999997 182.5 C 151.79999999999998 194.1 148.39999999999998 206.9 148.39999999999998 220.7 C 148.39999999999998 234.49999999999997 151.79999999999998 247.2 158.49999999999997 258.8 C 165.29999999999998 270.40000000000003 174.59999999999997 279.7 186.19999999999996 286.5 C 197.79999999999995 293.3 210.49999999999997 296.7 224.29999999999995 296.7 C 238.09999999999994 296.7 250.79999999999995 293.3 262.4 286.5 C 274 279.7 283.29999999999995 270.5 290 258.9 C 296.8 247.2 300.2 234.5 300.2 220.7 Z M 0 0 M 320.2 220.7 C 320.2 238.1 315.9 254.2 307.3 268.9 C 298.7 283.59999999999997 287.1 295.29999999999995 272.40000000000003 303.79999999999995 C 257.70000000000005 312.4 241.60000000000002 316.69999999999993 224.20000000000005 316.69999999999993 C 206.80000000000007 316.69999999999993 190.70000000000005 312.3999999999999 176.00000000000006 303.79999999999995 C 161.30000000000007 295.19999999999993 149.70000000000005 283.59999999999997 141.10000000000005 268.9 C 132.50000000000006 254.2 128.30000000000004 238.09999999999997 128.30000000000004 220.7 C 128.30000000000004 203.3 132.60000000000005 187.2 141.20000000000005 172.5 C 149.80000000000004 157.8 161.40000000000003 146.1 176.10000000000005 137.5 C 190.80000000000004 128.9 206.90000000000006 124.7 224.30000000000007 124.7 C 241.70000000000007 124.7 257.80000000000007 129 272.50000000000006 137.6 C 287.20000000000005 146.2 298.90000000000003 157.9 307.40000000000003 172.5 C 316 187.2 320.2 203.3 320.2 220.7 Z"/></g></g></g></g><g transform="matrix(1,0,0,1,-62.26953125,61)"><text fill="#000000" stroke="none" font-family="Open Sans" font-size="12pt" font-style="normal" font-weight="normal" text-decoration="normal" x="90.26953125" y="12" text-anchor="middle" dominant-baseline="alphabetic">1 minute after payment </text><text fill="#000000" stroke="none" font-family="Open Sans" font-size="12pt" font-style="normal" font-weight="normal" text-decoration="normal" x="90.26953125" y="27" text-anchor="middle" dominant-baseline="alphabetic">                 start                  </text></g></g><g id="_CA974F47-D982-4420-A5DB-A2FC18F63663" bpmn2nodeid="_CA974F47-D982-4420-A5DB-A2FC18F63663" transform="matrix(1,0,0,1,695.4285736083984,80.1290283203125)"><g><path fill="none" stroke="none"/></g><g transform="matrix(0.125,0,0,0.125,0,0)"><g transform="matrix(1,0,0,1,0,0)"><path fill="#fce7e7" stroke="none" id="_CA974F47-D982-4420-A5DB-A2FC18F63663?shapeType=BACKGROUND" paint-order="stroke fill markers" d=" M 0 0 M 444 224 C 444 263.9 434.2 300.8 414.4 334.5 C 394.7 368.2 368 394.9 334.4 414.5 C 300.79999999999995 434.1 263.9 444 224 444 C 184.10000000000002 444 147.2 434.2 113.5 414.4 C 79.8 394.7 53.1 368 33.5 334.4 C 13.899999999999999 300.79999999999995 4 263.9 4 224 C 4 184.10000000000002 13.8 147.2 33.6 113.5 C 53.400000000000006 79.80000000000001 80.1 53.1 113.6 33.5 C 147.1 13.899999999999999 184.1 4 224 4 C 263.9 4 300.8 13.8 334.5 33.6 C 368.2 53.400000000000006 394.9 80.1 414.5 113.6 C 434.1 147.1 444 184.1 444 224 Z"/></g><g><g transform="matrix(1,0,0,1,0,0)"><g transform="matrix(1,0,0,1,0,0)"><path fill="#a30000" stroke="none" id="_CA974F47-D982-4420-A5DB-A2FC18F63663?shapeType=BORDER&amp;renderType=FILL" paint-order="stroke fill markers" d=" M 0 0 M 224 0 C 100.3 0 0 100.3 0 224 C 0 347.7 100.3 448 224 448 C 347.7 448 448 347.7 448 224 C 448 100.30000000000001 347.7 0 224 0 Z M 0 0 M 224 400 C 126.8 400 48 321.2 48 224 C 48 126.80000000000001 126.8 48 224 48 C 321.2 48 400 126.8 400 224 C 400 321.2 321.2 400 224 400 Z"/></g></g></g></g><g transform="matrix(1,0,0,1,-43.1796875,61)"><text fill="#000000" stroke="none" font-family="Open Sans" font-size="12pt" font-style="normal" font-weight="normal" text-decoration="normal" x="71.1796875" y="12" text-anchor="middle" dominant-baseline="alphabetic">Payment Cancelled</text></g></g><g id="_220DE3D0-A836-4519-8D11-840D32051830" bpmn2nodeid="_220DE3D0-A836-4519-8D11-840D32051830" transform="matrix(1,0,0,1,362.57142639160156,57.1290283203125)"><g><path fill="none" stroke="none"/></g><g transform="matrix(1,0,0,1,0,0)"><path fill="#ffffff" stroke="none" id="_220DE3D0-A836-4519-8D11-840D32051830?shapeType=BACKGROUND" paint-order="stroke fill markers" d=" M 2 0 L 152.00003051757812 0 L 152.00003051757812 0 A 2 2 0 0 1 154.00003051757812 2 L 154.00003051757812 100 L 154.00003051757812 100 A 2 2 0 0 1 152.00003051757812 102 L 2 102 L 2 102 A 2 2 0 0 1 0 100 L 0 2 L 0 2.0000000000000004 A 2 2 0 0 1 1.9999999999999996 0 Z"/></g><g transform="matrix(1,0,0,1,0,0)"><path fill="none" stroke="rgb(0,0,0)" id="_220DE3D0-A836-4519-8D11-840D32051830?shapeType=BORDER&amp;renderType=STROKE" paint-order="fill stroke markers" d=" M 2 0 L 152.00003051757812 0 L 152.00003051757812 0 A 2 2 0 0 1 154.00003051757812 2 L 154.00003051757812 100 L 154.00003051757812 100 A 2 2 0 0 1 152.00003051757812 102 L 2 102 L 2 102 A 2 2 0 0 1 0 100 L 0 2 L 0 2.0000000000000004 A 2 2 0 0 1 1.9999999999999996 0 Z" stroke-miterlimit="10" stroke-width="1.5" stroke-dasharray=""/></g><g><g transform="matrix(0.06,0,0,0.06,9.4,9.4)"><g transform="matrix(1,0,0,1,0,0)"><path fill="#393f44" stroke="none" id="_220DE3D0-A836-4519-8D11-840D32051830_task__aiVF__Cj7A" paint-order="stroke fill markers" d=" M 0 0 M 197.3 130.2 C 194.4 127.29999999999998 189.60000000000002 127.29999999999998 186.70000000000002 130.2 L 130.20000000000002 186.7 C 127.30000000000001 189.6 127.30000000000001 194.39999999999998 130.20000000000002 197.29999999999998 L 186.70000000000002 253.79999999999998 C 188.10000000000002 255.29999999999998 190.10000000000002 255.99999999999997 192.00000000000003 255.99999999999997 C 193.90000000000003 255.99999999999997 195.90000000000003 255.29999999999998 197.30000000000004 253.69999999999996 C 200.20000000000005 250.79999999999995 200.20000000000005 245.99999999999997 197.30000000000004 243.09999999999997 L 146.2 192 L 197.29999999999998 140.8 C 200.2 137.9 200.2 133.1 197.3 130.2 Z"/></g><g transform="matrix(1,0,0,1,0,0)"><path fill="#393f44" stroke="none" id="_220DE3D0-A836-4519-8D11-840D32051830_task__aiVF__Ewo8" paint-order="stroke fill markers" d=" M 0 0 M 261.3 130.2 C 258.40000000000003 127.29999999999998 253.60000000000002 127.29999999999998 250.70000000000002 130.2 C 247.8 133.1 247.8 137.89999999999998 250.70000000000002 140.79999999999998 L 301.8 191.89999999999998 L 250.7 243 C 247.79999999999998 245.9 247.79999999999998 250.7 250.7 253.6 C 252.1 255.29999999999998 254.1 256 256 256 C 257.9 256 259.9 255.3 261.3 253.8 L 317.8 197.3 C 320.7 194.4 320.7 189.60000000000002 317.8 186.70000000000002 L 261.3 130.2 Z"/></g><g transform="matrix(1,0,0,1,0,0)"><path fill="#393f44" stroke="none" id="_220DE3D0-A836-4519-8D11-840D32051830_task__aiVF__DUcV" paint-order="stroke fill markers" d=" M 0 0 M 400 32 C 400 32 152.8 32 128 32 C 62 32 64 96 64 96 L 64 288 L 1 288 C 1 288 -4 416 78 416 L 320 416 C 368 416 384 368 384 336 C 384 314.2 384 224.4 384 160 L 448 160 L 448 96 C 448 96 449 32 400 32 Z M 0 0 M 78 383.9 C 68.5 383.9 61.6 381.09999999999997 55.5 374.9 C 43.4 362.4 37.5 339.59999999999997 34.9 320 L 256.9 320 C 257.09999999999997 322.7 257.29999999999995 325.4 257.59999999999997 328.2 C 259.99999999999994 351.59999999999997 264.7 370.09999999999997 271.9 383.9 L 78 383.9 L 78 383.9 Z M 0 0 M 352 336 C 352 345.9 349.6 360.3 342.9 371 C 337.2 380.1 330.4 384 320 384 C 285 384 288 288 288 288 L 96 288 L 96 96 L 96 95.9 L 96 95.10000000000001 C 96 90.60000000000001 97.6 78.30000000000001 104.7 71.20000000000002 C 106.5 69.40000000000002 111.9 64.00000000000001 128 64.00000000000001 L 356.5 64.00000000000001 C 354.4 72.80000000000001 352.8 81.80000000000001 352.2 89.9 C 352.2 90.5 352.09999999999997 91.10000000000001 352.09999999999997 91.7 C 352.09999999999997 92 352.09999999999997 92.3 352.09999999999997 92.60000000000001 C 352 94.8 352 96 352 96 L 352 160 L 352 336 Z"/></g></g></g><g transform="matrix(1,0,0,1,35,21)"><text fill="#000000" stroke="none" font-family="Open Sans" font-size="12pt" font-style="normal" font-weight="normal" text-decoration="normal" x="46.62890625" y="12" text-anchor="middle" dominant-baseline="alphabetic">    Custom     </text><text fill="#000000" stroke="none" font-family="Open Sans" font-size="12pt" font-style="normal" font-weight="normal" text-decoration="normal" x="46.62890625" y="27" text-anchor="middle" dominant-baseline="alphabetic">cancellation </text><text fill="#000000" stroke="none" font-family="Open Sans" font-size="12pt" font-style="normal" font-weight="normal" text-decoration="normal" x="46.62890625" y="42" text-anchor="middle" dominant-baseline="alphabetic">      logic        </text><text fill="#000000" stroke="none" font-family="Open Sans" font-size="12pt" font-style="normal" font-weight="normal" text-decoration="normal" x="46.62890625" y="57" text-anchor="middle" dominant-baseline="alphabetic">  (optional)   </text></g></g><g id="_B3098497-0070-42BB-B495-447E4C5A4CCD" bpmn2nodeid="_B3098497-0070-42BB-B495-447E4C5A4CCD" transform="matrix(1,0,0,1,717.4285736083984,10.85418701171875)"><g><path fill="none" stroke="none"/></g><g transform="matrix(1.74,0,0,1.1166666666666667,0,0)"><g transform="matrix(1,0,0,1,0,0)"><path fill="none" stroke="#000000" id="_B3098497-0070-42BB-B495-447E4C5A4CCD?shapeType=BORDER&amp;renderType=STROKE" paint-order="fill stroke markers" d=" M 0 0 M 7.4 58.6 L 2.6 58.6 L 2.6 1.4 L 7.4 1.4" stroke-miterlimit="10" stroke-dasharray=""/></g><g><g transform="matrix(1,0,0,1,0,0)"><g transform="matrix(1,0,0,1,0,0)"><path fill="none" stroke="none"/></g></g></g></g><g transform="matrix(1,0,0,1,22.9296875,11)"><text fill="#000000" stroke="none" font-family="Open Sans" font-size="12pt" font-style="normal" font-weight="normal" text-decoration="normal" x="64.0703125" y="12" text-anchor="middle" dominant-baseline="alphabetic">Process instance </text><text fill="#000000" stroke="none" font-family="Open Sans" font-size="12pt" font-style="normal" font-weight="normal" text-decoration="normal" x="64.0703125" y="27" text-anchor="middle" dominant-baseline="alphabetic"> ends in aborted  </text><text fill="#000000" stroke="none" font-family="Open Sans" font-size="12pt" font-style="normal" font-weight="normal" text-decoration="normal" x="64.0703125" y="42" text-anchor="middle" dominant-baseline="alphabetic">          status          </text></g></g></g><g id="_41A42F3A-0F58-454E-936B-769876FE6937" bpmn2nodeid="_41A42F3A-0F58-454E-936B-769876FE6937"><g><path fill="none" stroke="#000000" paint-order="fill stroke markers" d=" M 774 432 L 850 432" stroke-miterlimit="10" stroke-dasharray=""/></g><g transform="matrix(1,0,0,1,774,432)"/><g transform="matrix(6.123233995736766e-17,1,-1,6.123233995736766e-17,865,427)"><path fill="#000000" stroke="#000000" paint-order="fill stroke markers" d=" M 10 15 L 0 15 L 5 0 Z" stroke-miterlimit="10" stroke-dasharray=""/></g><g transform="matrix(1,0,0,1,774,422)"/></g><g id="_5EC76557-A3A2-4B0D-9167-2C39D84301EC" bpmn2nodeid="_5EC76557-A3A2-4B0D-9167-2C39D84301EC"><g><path fill="none" stroke="#000000" paint-order="fill stroke markers" d=" M 256.1428527832031 661.700439453125 L 478.1428527832031 661.700439453125" stroke-miterlimit="10" stroke-dasharray=""/></g><g transform="matrix(1,0,0,1,256.1428527832031,661.700439453125)"/><g transform="matrix(6.123233995736766e-17,1,-1,6.123233995736766e-17,493.1428527832031,656.700439453125)"><path fill="#000000" stroke="#000000" paint-order="fill stroke markers" d=" M 10 15 L 0 15 L 5 0 Z" stroke-miterlimit="10" stroke-dasharray=""/></g><g transform="matrix(1,0,0,1,274.6428527832031,651.700439453125)"/></g><g id="_72761062-8679-41F6-B453-0775AA3B2C3B" bpmn2nodeid="_72761062-8679-41F6-B453-0775AA3B2C3B"><g><path fill="none" stroke="#000000" paint-order="fill stroke markers" d=" M 647.1428833007812 661.700439453125 L 811 661.700439453125" stroke-miterlimit="10" stroke-dasharray=""/></g><g transform="matrix(1,0,0,1,647.1428833007812,661.700439453125)"/><g transform="matrix(6.123233995736766e-17,1,-1,6.123233995736766e-17,826,656.700439453125)"><path fill="#000000" stroke="#000000" paint-order="fill stroke markers" d=" M 10 15 L 0 15 L 5 0 Z" stroke-miterlimit="10" stroke-dasharray=""/></g><g transform="matrix(1,0,0,1,647.1428833007812,651.700439453125)"/></g><g transform="matrix(1,0,0,1,132,41)"/><g transform="matrix(1,0,0,1,132,300)"/><g transform="matrix(1,0,0,1,620,381)"/><g transform="matrix(1,0,0,1,865,404)"/><g transform="matrix(1,0,0,1,219,136)"/><g id="_EA1DDB37-1E3F-425F-86D0-3921B43A9164" bpmn2nodeid="_EA1DDB37-1E3F-425F-86D0-3921B43A9164"><g><path fill="none" stroke="#000000" paint-order="fill stroke markers" d=" M 275 164 L 341 164" stroke-miterlimit="10" stroke-dasharray=""/></g><g transform="matrix(1,0,0,1,275,164)"/><g transform="matrix(6.123233995736766e-17,1,-1,6.123233995736766e-17,356,159)"><path fill="#000000" stroke="#000000" paint-order="fill stroke markers" d=" M 10 15 L 0 15 L 5 0 Z" stroke-miterlimit="10" stroke-dasharray=""/></g><g transform="matrix(1,0,0,1,275,154)"/></g><g id="_71013D6E-8E65-4E07-8925-29717941572B" bpmn2nodeid="_71013D6E-8E65-4E07-8925-29717941572B"><g><path fill="none" stroke="#000000" paint-order="fill stroke markers" d=" M 510 164 L 547 164 L 547 432 L 605 432" stroke-miterlimit="10" stroke-dasharray=""/></g><g transform="matrix(1,0,0,1,510,164)"/><g transform="matrix(6.123233995736766e-17,1,-1,6.123233995736766e-17,620,427)"><path fill="#000000" stroke="#000000" paint-order="fill stroke markers" d=" M 10 15 L 0 15 L 5 0 Z" stroke-miterlimit="10" stroke-dasharray=""/></g><g transform="matrix(1,0,0,1,510,154)"/></g><g transform="matrix(1,0,0,1,356,113)"/><g transform="matrix(1,0,0,1,130.57142639160156,553.5714111328125)"/><g transform="matrix(1,0,0,1,200.14285278320312,633.700439453125)"/><g transform="matrix(1,0,0,1,826,633.700439453125)"/><g transform="matrix(1,0,0,1,493.1428527832031,610.700439453125)"/><g transform="matrix(1,0,0,1,848,564.4255981445312)"/></g></g></svg>